<?xml version="1.0" encoding="UTF-8" standalone="no"?>
<!DOCTYPE svg PUBLIC "-//W3C//DTD SVG 1.1//EN"
 "http://www.w3.org/Graphics/SVG/1.1/DTD/svg11.dtd">
<!-- Generated by graphviz version 2.47.0 (20210316.0004)
 -->
<!-- Title: dependencies Pages: 1 -->
<svg width="4110pt" height="284pt"
 viewBox="0.00 0.00 4110.00 284.00" xmlns="http://www.w3.org/2000/svg" xmlns:xlink="http://www.w3.org/1999/xlink">
<g id="graph0" class="graph" transform="scale(1 1) rotate(0) translate(4 280)">
<title>dependencies</title>
<polygon fill="white" stroke="transparent" points="-4,4 -4,-280 4106,-280 4106,4 -4,4"/>
<text text-anchor="start" x="2030.01" y="-42.4" font-family="Times-12" font-weight="bold" font-size="14.00">Legend</text>
<polygon fill="#ffffb3" stroke="transparent" points="1817,-10 1817,-30 1837,-30 1837,-10 1817,-10"/>
<text text-anchor="start" x="1840.63" y="-15.4" font-family="Times-12" font-size="14.00"> &#160;Declarations</text>
<polygon fill="#8dd3c7" stroke="transparent" points="1930,-10 1930,-30 1950,-30 1950,-10 1930,-10"/>
<text text-anchor="start" x="1953.73" y="-15.4" font-family="Times-12" font-size="14.00"> &#160;Module</text>
<polygon fill="#80b1d3" stroke="transparent" points="2016,-10 2016,-30 2036,-30 2036,-10 2016,-10"/>
<text text-anchor="start" x="2039.78" y="-15.4" font-family="Times-12" font-size="14.00"> &#160;Bootstrap</text>
<polygon fill="#fdb462" stroke="transparent" points="2113,-10 2113,-30 2133,-30 2133,-10 2113,-10"/>
<text text-anchor="start" x="2136.67" y="-15.4" font-family="Times-12" font-size="14.00"> &#160;Providers</text>
<polygon fill="#fb8072" stroke="transparent" points="2209,-10 2209,-30 2229,-30 2229,-10 2209,-10"/>
<text text-anchor="start" x="2232.73" y="-15.4" font-family="Times-12" font-size="14.00"> &#160;Exports</text>
<g id="clust1" class="cluster">
<title>cluster_AppModule</title>
<polygon fill="none" stroke="black" stroke-dasharray="1,5" points="8,-70 8,-268 3738,-268 3738,-70 8,-70"/>
</g>
<g id="clust2" class="cluster">
<title>cluster_AppModule_declarations</title>
<polygon fill="none" stroke="black" points="568,-78 568,-130 3730,-130 3730,-78 568,-78"/>
</g>
<g id="clust25" class="cluster">
<title>cluster_AppModule_imports</title>
<polygon fill="none" stroke="black" points="416,-78 416,-130 560,-130 560,-78 416,-78"/>
</g>
<g id="clust27" class="cluster">
<title>cluster_AppModule_bootstrap</title>
<polygon fill="none" stroke="black" points="1903,-208 1903,-260 2027,-260 2027,-208 1903,-208"/>
</g>
<g id="clust28" class="cluster">
<title>cluster_AppModule_providers</title>
<polygon fill="none" stroke="black" points="16,-78 16,-130 408,-130 408,-78 16,-78"/>
</g>
<g id="clust35" class="cluster">
<title>cluster_SettingModule</title>
<polygon fill="none" stroke="black" stroke-dasharray="1,5" points="3746,-70 3746,-195 4094,-195 4094,-70 3746,-70"/>
</g>
<g id="clust36" class="cluster">
<title>cluster_SettingModule_declarations</title>
<polygon fill="none" stroke="black" points="3922,-78 3922,-130 4086,-130 4086,-78 3922,-78"/>
</g>
<g id="clust38" class="cluster">
<title>cluster_SettingModule_imports</title>
<polygon fill="none" stroke="black" points="3754,-78 3754,-130 3914,-130 3914,-78 3754,-78"/>
</g>
<!-- AboutComponent -->
<g id="node1" class="node">
<title>AboutComponent</title>
<polygon fill="#ffffb3" stroke="black" points="3722.33,-122 3605.67,-122 3605.67,-86 3722.33,-86 3722.33,-122"/>
<text text-anchor="middle" x="3664" y="-99.8" font-family="Times,serif" font-size="14.00">AboutComponent</text>
</g>
<!-- AppModule -->
<g id="node23" class="node">
<title>AppModule</title>
<polygon fill="#8dd3c7" stroke="black" points="2006.66,-187 2003.66,-191 1982.66,-191 1979.66,-187 1923.34,-187 1923.34,-151 2006.66,-151 2006.66,-187"/>
<text text-anchor="middle" x="1965" y="-164.8" font-family="Times,serif" font-size="14.00">AppModule</text>
</g>
<!-- AboutComponent&#45;&gt;AppModule -->
<g id="edge1" class="edge">
<title>AboutComponent&#45;&gt;AppModule</title>
<path fill="none" stroke="black" d="M3664,-122.38C3664,-146.28 3664,-185 3664,-185 3664,-185 2017,-185 2017,-185"/>
<polygon fill="black" stroke="black" points="2017,-181.5 2007,-185 2017,-188.5 2017,-181.5"/>
</g>
<!-- AddTittlePipe -->
<g id="node2" class="node">
<title>AddTittlePipe</title>
<polygon fill="#ffffb3" stroke="black" points="3587.82,-122 3492.18,-122 3492.18,-86 3587.82,-86 3587.82,-122"/>
<text text-anchor="middle" x="3540" y="-99.8" font-family="Times,serif" font-size="14.00">AddTittlePipe</text>
</g>
<!-- AddTittlePipe&#45;&gt;AppModule -->
<g id="edge2" class="edge">
<title>AddTittlePipe&#45;&gt;AppModule</title>
<path fill="none" stroke="black" d="M3540,-122.09C3540,-145.13 3540,-182 3540,-182 3540,-182 2016.72,-182 2016.72,-182"/>
<polygon fill="black" stroke="black" points="2016.72,-178.5 2006.72,-182 2016.72,-185.5 2016.72,-178.5"/>
</g>
<!-- AppComponent -->
<g id="node3" class="node">
<title>AppComponent</title>
<polygon fill="#ffffb3" stroke="black" points="3474.94,-122 3369.06,-122 3369.06,-86 3474.94,-86 3474.94,-122"/>
<text text-anchor="middle" x="3422" y="-99.8" font-family="Times,serif" font-size="14.00">AppComponent</text>
</g>
<!-- AppComponent&#45;&gt;AppModule -->
<g id="edge3" class="edge">
<title>AppComponent&#45;&gt;AppModule</title>
<path fill="none" stroke="black" d="M3422,-122.16C3422,-144.35 3422,-179 3422,-179 3422,-179 2017.03,-179 2017.03,-179"/>
<polygon fill="black" stroke="black" points="2017.03,-175.5 2007.03,-179 2017.03,-182.5 2017.03,-175.5"/>
</g>
<!-- BrandComponent -->
<g id="node4" class="node">
<title>BrandComponent</title>
<polygon fill="#ffffb3" stroke="black" points="3351.55,-122 3236.45,-122 3236.45,-86 3351.55,-86 3351.55,-122"/>
<text text-anchor="middle" x="3294" y="-99.8" font-family="Times,serif" font-size="14.00">BrandComponent</text>
</g>
<!-- BrandComponent&#45;&gt;AppModule -->
<g id="edge4" class="edge">
<title>BrandComponent&#45;&gt;AppModule</title>
<path fill="none" stroke="black" d="M3294,-122.17C3294,-143.5 3294,-176 3294,-176 3294,-176 2016.97,-176 2016.97,-176"/>
<polygon fill="black" stroke="black" points="2016.97,-172.5 2006.97,-176 2016.97,-179.5 2016.97,-172.5"/>
</g>
<!-- CartComponent -->
<g id="node5" class="node">
<title>CartComponent</title>
<polygon fill="#ffffb3" stroke="black" points="3218.94,-122 3113.06,-122 3113.06,-86 3218.94,-86 3218.94,-122"/>
<text text-anchor="middle" x="3166" y="-99.8" font-family="Times,serif" font-size="14.00">CartComponent</text>
</g>
<!-- CartComponent&#45;&gt;AppModule -->
<g id="edge5" class="edge">
<title>CartComponent&#45;&gt;AppModule</title>
<path fill="none" stroke="black" d="M3166,-122.03C3166,-142.77 3166,-174 3166,-174 3166,-174 2016.69,-174 2016.69,-174"/>
<polygon fill="black" stroke="black" points="2016.69,-170.5 2006.69,-174 2016.69,-177.5 2016.69,-170.5"/>
</g>
<!-- CategoriesComponent -->
<g id="node6" class="node">
<title>CategoriesComponent</title>
<polygon fill="#ffffb3" stroke="black" points="3095.7,-122 2954.3,-122 2954.3,-86 3095.7,-86 3095.7,-122"/>
<text text-anchor="middle" x="3025" y="-99.8" font-family="Times,serif" font-size="14.00">CategoriesComponent</text>
</g>
<!-- CategoriesComponent&#45;&gt;AppModule -->
<g id="edge6" class="edge">
<title>CategoriesComponent&#45;&gt;AppModule</title>
<path fill="none" stroke="black" d="M3025,-122.31C3025,-142.15 3025,-171 3025,-171 3025,-171 2016.88,-171 2016.88,-171"/>
<polygon fill="black" stroke="black" points="2016.88,-167.5 2006.88,-171 2016.88,-174.5 2016.88,-167.5"/>
</g>
<!-- CheckoutComponent -->
<g id="node7" class="node">
<title>CheckoutComponent</title>
<polygon fill="#ffffb3" stroke="black" points="2936.49,-122 2801.51,-122 2801.51,-86 2936.49,-86 2936.49,-122"/>
<text text-anchor="middle" x="2869" y="-99.8" font-family="Times,serif" font-size="14.00">CheckoutComponent</text>
</g>
<!-- CheckoutComponent&#45;&gt;AppModule -->
<g id="edge7" class="edge">
<title>CheckoutComponent&#45;&gt;AppModule</title>
<path fill="none" stroke="black" d="M2869,-122.17C2869,-141.09 2869,-168 2869,-168 2869,-168 2016.79,-168 2016.79,-168"/>
<polygon fill="black" stroke="black" points="2016.79,-164.5 2006.79,-168 2016.79,-171.5 2016.79,-164.5"/>
</g>
<!-- FooterComponent -->
<g id="node8" class="node">
<title>FooterComponent</title>
<polygon fill="#ffffb3" stroke="black" points="2783.88,-122 2666.12,-122 2666.12,-86 2783.88,-86 2783.88,-122"/>
<text text-anchor="middle" x="2725" y="-99.8" font-family="Times,serif" font-size="14.00">FooterComponent</text>
</g>
<!-- FooterComponent&#45;&gt;AppModule -->
<g id="edge8" class="edge">
<title>FooterComponent&#45;&gt;AppModule</title>
<path fill="none" stroke="black" d="M2725,-122.3C2725,-140.27 2725,-165 2725,-165 2725,-165 2016.67,-165 2016.67,-165"/>
<polygon fill="black" stroke="black" points="2016.67,-161.5 2006.67,-165 2016.67,-168.5 2016.67,-161.5"/>
</g>
<!-- ForgotPasswordComponent -->
<g id="node9" class="node">
<title>ForgotPasswordComponent</title>
<polygon fill="#ffffb3" stroke="black" points="2648.32,-122 2475.68,-122 2475.68,-86 2648.32,-86 2648.32,-122"/>
<text text-anchor="middle" x="2562" y="-99.8" font-family="Times,serif" font-size="14.00">ForgotPasswordComponent</text>
</g>
<!-- ForgotPasswordComponent&#45;&gt;AppModule -->
<g id="edge9" class="edge">
<title>ForgotPasswordComponent&#45;&gt;AppModule</title>
<path fill="none" stroke="black" d="M2562,-122.02C2562,-139.37 2562,-163 2562,-163 2562,-163 2016.98,-163 2016.98,-163"/>
<polygon fill="black" stroke="black" points="2016.98,-159.5 2006.98,-163 2016.98,-166.5 2016.98,-159.5"/>
</g>
<!-- HomeComponent -->
<g id="node10" class="node">
<title>HomeComponent</title>
<polygon fill="#ffffb3" stroke="black" points="2457.55,-122 2342.45,-122 2342.45,-86 2457.55,-86 2457.55,-122"/>
<text text-anchor="middle" x="2400" y="-99.8" font-family="Times,serif" font-size="14.00">HomeComponent</text>
</g>
<!-- HomeComponent&#45;&gt;AppModule -->
<g id="edge10" class="edge">
<title>HomeComponent&#45;&gt;AppModule</title>
<path fill="none" stroke="black" d="M2400,-122.03C2400,-138.4 2400,-160 2400,-160 2400,-160 2016.71,-160 2016.71,-160"/>
<polygon fill="black" stroke="black" points="2016.71,-156.5 2006.71,-160 2016.71,-163.5 2016.71,-156.5"/>
</g>
<!-- LoaderComponent -->
<g id="node11" class="node">
<title>LoaderComponent</title>
<polygon fill="#ffffb3" stroke="black" points="2324.47,-122 2203.53,-122 2203.53,-86 2324.47,-86 2324.47,-122"/>
<text text-anchor="middle" x="2264" y="-99.8" font-family="Times,serif" font-size="14.00">LoaderComponent</text>
</g>
<!-- LoaderComponent&#45;&gt;AppModule -->
<g id="edge11" class="edge">
<title>LoaderComponent&#45;&gt;AppModule</title>
<path fill="none" stroke="black" d="M2264,-122.24C2264,-137.57 2264,-157 2264,-157 2264,-157 2016.89,-157 2016.89,-157"/>
<polygon fill="black" stroke="black" points="2016.89,-153.5 2006.89,-157 2016.89,-160.5 2016.89,-153.5"/>
</g>
<!-- MainsliderComponent -->
<g id="node12" class="node">
<title>MainsliderComponent</title>
<polygon fill="#ffffb3" stroke="black" points="2185.98,-122 2044.02,-122 2044.02,-86 2185.98,-86 2185.98,-122"/>
<text text-anchor="middle" x="2115" y="-99.8" font-family="Times,serif" font-size="14.00">MainsliderComponent</text>
</g>
<!-- MainsliderComponent&#45;&gt;AppModule -->
<g id="edge12" class="edge">
<title>MainsliderComponent&#45;&gt;AppModule</title>
<path fill="none" stroke="black" d="M2115,-122.05C2115,-136.37 2115,-154 2115,-154 2115,-154 2016.78,-154 2016.78,-154"/>
<polygon fill="black" stroke="black" points="2016.78,-150.5 2006.78,-154 2016.78,-157.5 2016.78,-150.5"/>
</g>
<!-- NavbarComponent -->
<g id="node13" class="node">
<title>NavbarComponent</title>
<polygon fill="#ffffb3" stroke="black" points="2026.03,-122 1903.97,-122 1903.97,-86 2026.03,-86 2026.03,-122"/>
<text text-anchor="middle" x="1965" y="-99.8" font-family="Times,serif" font-size="14.00">NavbarComponent</text>
</g>
<!-- NavbarComponent&#45;&gt;AppModule -->
<g id="edge13" class="edge">
<title>NavbarComponent&#45;&gt;AppModule</title>
<path fill="none" stroke="black" d="M1965,-122.11C1965,-122.11 1965,-140.99 1965,-140.99"/>
<polygon fill="black" stroke="black" points="1961.5,-140.99 1965,-150.99 1968.5,-140.99 1961.5,-140.99"/>
</g>
<!-- NotFoundComponent -->
<g id="node14" class="node">
<title>NotFoundComponent</title>
<polygon fill="#ffffb3" stroke="black" points="1886.11,-122 1747.89,-122 1747.89,-86 1886.11,-86 1886.11,-122"/>
<text text-anchor="middle" x="1817" y="-99.8" font-family="Times,serif" font-size="14.00">NotFoundComponent</text>
</g>
<!-- NotFoundComponent&#45;&gt;AppModule -->
<g id="edge14" class="edge">
<title>NotFoundComponent&#45;&gt;AppModule</title>
<path fill="none" stroke="black" d="M1817,-122.05C1817,-136.37 1817,-154 1817,-154 1817,-154 1912.99,-154 1912.99,-154"/>
<polygon fill="black" stroke="black" points="1912.99,-157.5 1922.99,-154 1912.98,-150.5 1912.99,-157.5"/>
</g>
<!-- ProductdetailsComponent -->
<g id="node15" class="node">
<title>ProductdetailsComponent</title>
<polygon fill="#ffffb3" stroke="black" points="1729.93,-122 1568.07,-122 1568.07,-86 1729.93,-86 1729.93,-122"/>
<text text-anchor="middle" x="1649" y="-99.8" font-family="Times,serif" font-size="14.00">ProductdetailsComponent</text>
</g>
<!-- ProductdetailsComponent&#45;&gt;AppModule -->
<g id="edge15" class="edge">
<title>ProductdetailsComponent&#45;&gt;AppModule</title>
<path fill="none" stroke="black" d="M1649,-122.24C1649,-137.57 1649,-157 1649,-157 1649,-157 1913.04,-157 1913.04,-157"/>
<polygon fill="black" stroke="black" points="1913.04,-160.5 1923.04,-157 1913.04,-153.5 1913.04,-160.5"/>
</g>
<!-- ProductsComponent -->
<g id="node16" class="node">
<title>ProductsComponent</title>
<polygon fill="#ffffb3" stroke="black" points="1550.33,-122 1419.67,-122 1419.67,-86 1550.33,-86 1550.33,-122"/>
<text text-anchor="middle" x="1485" y="-99.8" font-family="Times,serif" font-size="14.00">ProductsComponent</text>
</g>
<!-- ProductsComponent&#45;&gt;AppModule -->
<g id="edge16" class="edge">
<title>ProductsComponent&#45;&gt;AppModule</title>
<path fill="none" stroke="black" d="M1485,-122.03C1485,-138.4 1485,-160 1485,-160 1485,-160 1913.24,-160 1913.24,-160"/>
<polygon fill="black" stroke="black" points="1913.24,-163.5 1923.24,-160 1913.24,-156.5 1913.24,-163.5"/>
</g>
<!-- ProfileComponent -->
<g id="node17" class="node">
<title>ProfileComponent</title>
<polygon fill="#ffffb3" stroke="black" points="1401.93,-122 1282.07,-122 1282.07,-86 1401.93,-86 1401.93,-122"/>
<text text-anchor="middle" x="1342" y="-99.8" font-family="Times,serif" font-size="14.00">ProfileComponent</text>
</g>
<!-- ProfileComponent&#45;&gt;AppModule -->
<g id="edge17" class="edge">
<title>ProfileComponent&#45;&gt;AppModule</title>
<path fill="none" stroke="black" d="M1342,-122.02C1342,-139.37 1342,-163 1342,-163 1342,-163 1913.16,-163 1913.16,-163"/>
<polygon fill="black" stroke="black" points="1913.16,-166.5 1923.16,-163 1913.16,-159.5 1913.16,-166.5"/>
</g>
<!-- ResetPasswordComponent -->
<g id="node18" class="node">
<title>ResetPasswordComponent</title>
<polygon fill="#ffffb3" stroke="black" points="1264.09,-122 1097.91,-122 1097.91,-86 1264.09,-86 1264.09,-122"/>
<text text-anchor="middle" x="1181" y="-99.8" font-family="Times,serif" font-size="14.00">ResetPasswordComponent</text>
</g>
<!-- ResetPasswordComponent&#45;&gt;AppModule -->
<g id="edge18" class="edge">
<title>ResetPasswordComponent&#45;&gt;AppModule</title>
<path fill="none" stroke="black" d="M1181,-122.3C1181,-140.27 1181,-165 1181,-165 1181,-165 1913.13,-165 1913.13,-165"/>
<polygon fill="black" stroke="black" points="1913.13,-168.5 1923.13,-165 1913.13,-161.5 1913.13,-168.5"/>
</g>
<!-- SearchPipe -->
<g id="node19" class="node">
<title>SearchPipe</title>
<polygon fill="#ffffb3" stroke="black" points="1079.47,-122 1000.53,-122 1000.53,-86 1079.47,-86 1079.47,-122"/>
<text text-anchor="middle" x="1040" y="-99.8" font-family="Times,serif" font-size="14.00">SearchPipe</text>
</g>
<!-- SearchPipe&#45;&gt;AppModule -->
<g id="edge19" class="edge">
<title>SearchPipe&#45;&gt;AppModule</title>
<path fill="none" stroke="black" d="M1040,-122.17C1040,-141.09 1040,-168 1040,-168 1040,-168 1913.15,-168 1913.15,-168"/>
<polygon fill="black" stroke="black" points="1913.15,-171.5 1923.15,-168 1913.15,-164.5 1913.15,-171.5"/>
</g>
<!-- SignInComponent -->
<g id="node20" class="node">
<title>SignInComponent</title>
<polygon fill="#ffffb3" stroke="black" points="982.17,-122 863.83,-122 863.83,-86 982.17,-86 982.17,-122"/>
<text text-anchor="middle" x="923" y="-99.8" font-family="Times,serif" font-size="14.00">SignInComponent</text>
</g>
<!-- SignInComponent&#45;&gt;AppModule -->
<g id="edge20" class="edge">
<title>SignInComponent&#45;&gt;AppModule</title>
<path fill="none" stroke="black" d="M923,-122.31C923,-142.15 923,-171 923,-171 923,-171 1913.19,-171 1913.19,-171"/>
<polygon fill="black" stroke="black" points="1913.19,-174.5 1923.19,-171 1913.19,-167.5 1913.19,-174.5"/>
</g>
<!-- SignUpComponent -->
<g id="node21" class="node">
<title>SignUpComponent</title>
<polygon fill="#ffffb3" stroke="black" points="846.11,-122 721.89,-122 721.89,-86 846.11,-86 846.11,-122"/>
<text text-anchor="middle" x="784" y="-99.8" font-family="Times,serif" font-size="14.00">SignUpComponent</text>
</g>
<!-- SignUpComponent&#45;&gt;AppModule -->
<g id="edge21" class="edge">
<title>SignUpComponent&#45;&gt;AppModule</title>
<path fill="none" stroke="black" d="M784,-122.03C784,-142.77 784,-174 784,-174 784,-174 1913.31,-174 1913.31,-174"/>
<polygon fill="black" stroke="black" points="1913.31,-177.5 1923.31,-174 1913.31,-170.5 1913.31,-177.5"/>
</g>
<!-- WishlistComponent -->
<g id="node22" class="node">
<title>WishlistComponent</title>
<polygon fill="#ffffb3" stroke="black" points="704,-122 576,-122 576,-86 704,-86 704,-122"/>
<text text-anchor="middle" x="640" y="-99.8" font-family="Times,serif" font-size="14.00">WishlistComponent</text>
</g>
<!-- WishlistComponent&#45;&gt;AppModule -->
<g id="edge22" class="edge">
<title>WishlistComponent&#45;&gt;AppModule</title>
<path fill="none" stroke="black" d="M640,-122.17C640,-143.5 640,-176 640,-176 640,-176 1913.16,-176 1913.16,-176"/>
<polygon fill="black" stroke="black" points="1913.16,-179.5 1923.16,-176 1913.16,-172.5 1913.16,-179.5"/>
</g>
<!-- AppComponent  -->
<g id="node25" class="node">
<title>AppComponent </title>
<polygon fill="#80b1d3" stroke="black" points="2019.44,-252 1910.56,-252 1910.56,-216 2019.44,-216 2019.44,-252"/>
<text text-anchor="middle" x="1965" y="-229.8" font-family="Times,serif" font-size="14.00">AppComponent </text>
</g>
<!-- AppModule&#45;&gt;AppComponent  -->
<g id="edge24" class="edge">
<title>AppModule&#45;&gt;AppComponent </title>
<path fill="none" stroke="black" stroke-dasharray="1,5" d="M1965,-187.11C1965,-187.11 1965,-205.99 1965,-205.99"/>
<polygon fill="black" stroke="black" points="1961.5,-205.99 1965,-215.99 1968.5,-205.99 1961.5,-205.99"/>
</g>
<!-- AppRoutingModule -->
<g id="node24" class="node">
<title>AppRoutingModule</title>
<polygon fill="#8dd3c7" stroke="black" points="552.27,-122 549.27,-126 528.27,-126 525.27,-122 423.73,-122 423.73,-86 552.27,-86 552.27,-122"/>
<text text-anchor="middle" x="488" y="-99.8" font-family="Times,serif" font-size="14.00">AppRoutingModule</text>
</g>
<!-- AppRoutingModule&#45;&gt;AppModule -->
<g id="edge23" class="edge">
<title>AppRoutingModule&#45;&gt;AppModule</title>
<path fill="none" stroke="black" d="M488,-122.16C488,-144.35 488,-179 488,-179 488,-179 1913.18,-179 1913.18,-179"/>
<polygon fill="black" stroke="black" points="1913.18,-182.5 1923.18,-179 1913.18,-175.5 1913.18,-182.5"/>
</g>
<!-- AddHeaderInterceptor -->
<g id="node26" class="node">
<title>AddHeaderInterceptor</title>
<ellipse fill="#fdb462" stroke="black" cx="302" cy="-104" rx="97.79" ry="18"/>
<text text-anchor="middle" x="302" y="-99.8" font-family="Times,serif" font-size="14.00">AddHeaderInterceptor</text>
</g>
<!-- AddHeaderInterceptor&#45;&gt;AppModule -->
<g id="edge25" class="edge">
<title>AddHeaderInterceptor&#45;&gt;AppModule</title>
<path fill="none" stroke="black" d="M302,-122.09C302,-145.13 302,-182 302,-182 302,-182 1913.06,-182 1913.06,-182"/>
<polygon fill="black" stroke="black" points="1913.06,-185.5 1923.06,-182 1913.06,-178.5 1913.06,-185.5"/>
</g>
<!-- LoaderInterceptor -->
<g id="node27" class="node">
<title>LoaderInterceptor</title>
<ellipse fill="#fdb462" stroke="black" cx="105" cy="-104" rx="80.98" ry="18"/>
<text text-anchor="middle" x="105" y="-99.8" font-family="Times,serif" font-size="14.00">LoaderInterceptor</text>
</g>
<!-- LoaderInterceptor&#45;&gt;AppModule -->
<g id="edge26" class="edge">
<title>LoaderInterceptor&#45;&gt;AppModule</title>
<path fill="none" stroke="black" d="M105,-122.38C105,-146.28 105,-185 105,-185 105,-185 1913.1,-185 1913.1,-185"/>
<polygon fill="black" stroke="black" points="1913.1,-188.5 1923.1,-185 1913.1,-181.5 1913.1,-188.5"/>
</g>
<!-- ChangepassComponent -->
<g id="node28" class="node">
<title>ChangepassComponent</title>
<polygon fill="#ffffb3" stroke="black" points="4078.2,-122 3929.8,-122 3929.8,-86 4078.2,-86 4078.2,-122"/>
<text text-anchor="middle" x="4004" y="-99.8" font-family="Times,serif" font-size="14.00">ChangepassComponent</text>
</g>
<!-- SettingModule -->
<g id="node29" class="node">
<title>SettingModule</title>
<polygon fill="#8dd3c7" stroke="black" points="3968.72,-187 3965.72,-191 3944.72,-191 3941.72,-187 3869.28,-187 3869.28,-151 3968.72,-151 3968.72,-187"/>
<text text-anchor="middle" x="3919" y="-164.8" font-family="Times,serif" font-size="14.00">SettingModule</text>
</g>
<!-- ChangepassComponent&#45;&gt;SettingModule -->
<g id="edge27" class="edge">
<title>ChangepassComponent&#45;&gt;SettingModule</title>
<path fill="none" stroke="black" d="M3949.25,-122.11C3949.25,-122.11 3949.25,-140.99 3949.25,-140.99"/>
<polygon fill="black" stroke="black" points="3945.75,-140.99 3949.25,-150.99 3952.75,-140.99 3945.75,-140.99"/>
</g>
<!-- SettingRoutingModule -->
<g id="node30" class="node">
<title>SettingRoutingModule</title>
<polygon fill="#8dd3c7" stroke="black" points="3906.34,-122 3903.34,-126 3882.34,-126 3879.34,-122 3761.66,-122 3761.66,-86 3906.34,-86 3906.34,-122"/>
<text text-anchor="middle" x="3834" y="-99.8" font-family="Times,serif" font-size="14.00">SettingRoutingModule</text>
</g>
<!-- SettingRoutingModule&#45;&gt;SettingModule -->
<g id="edge28" class="edge">
<title>SettingRoutingModule&#45;&gt;SettingModule</title>
<path fill="none" stroke="black" d="M3887.78,-122.11C3887.78,-122.11 3887.78,-140.99 3887.78,-140.99"/>
<polygon fill="black" stroke="black" points="3884.28,-140.99 3887.78,-150.99 3891.28,-140.99 3884.28,-140.99"/>
</g>
</g>
</svg>
